<?xml version="1.0" standalone="no"?>
<!DOCTYPE svg PUBLIC "-//W3C//DTD SVG 20010904//EN"
 "http://www.w3.org/TR/2001/REC-SVG-20010904/DTD/svg10.dtd">
<svg version="1.0" xmlns="http://www.w3.org/2000/svg"
 width="512.000000pt" height="512.000000pt" viewBox="0 0 512.000000 512.000000"
 preserveAspectRatio="xMidYMid meet">
<metadata>
Created by potrace 1.14, written by Peter Selinger 2001-2017
</metadata>
<g transform="translate(0.000000,512.000000) scale(0.100000,-0.100000)"
fill="#000000" stroke="none">
<path d="M2653 4990 c-136 -28 -202 -113 -272 -349 -32 -108 -81 -343 -81
-389 0 -16 -3 -31 -6 -35 -7 -7 -204 90 -329 161 -44 25 -145 88 -224 139 -80
52 -155 93 -168 93 -41 0 -81 -27 -93 -64 -22 -69 56 -367 157 -595 5 -12 -15
-13 -133 -7 -239 12 -536 51 -760 102 -118 26 -143 24 -176 -12 -27 -31 -32
-69 -13 -108 19 -39 139 -158 228 -225 31 -24 57 -46 57 -50 0 -3 -39 -28 -86
-54 -310 -177 -545 -449 -657 -762 -147 -412 -119 -966 70 -1399 188 -429 551
-789 1028 -1017 249 -119 498 -197 778 -243 225 -38 348 -47 592 -47 278 0
465 18 699 67 535 113 985 348 1311 685 325 336 499 728 537 1212 13 172 1
367 -33 532 -87 421 -329 750 -718 975 l-90 52 47 70 c53 80 61 130 27 168
-33 37 -60 42 -149 25 -44 -8 -121 -19 -171 -25 -99 -12 -457 -14 -518 -2
l-39 7 69 52 c84 64 208 139 325 199 48 24 92 53 98 63 18 35 12 88 -14 118
-23 26 -30 28 -111 32 -205 8 -597 -36 -828 -94 -73 -18 -133 -32 -134 -31 -8
6 44 212 78 311 36 105 40 128 36 186 -11 172 -167 293 -334 259z m104 -215
c36 -25 36 -62 4 -152 -64 -175 -104 -393 -117 -639 -6 -126 -9 -140 -30 -161
-32 -32 -78 -30 -111 3 l-26 26 6 152 c10 232 46 437 112 633 20 59 46 118 57
130 25 27 73 30 105 8z m-950 -537 c38 -23 156 -86 263 -141 l195 -99 6 -97
c8 -118 31 -173 101 -236 109 -97 264 -99 372 -4 73 64 98 123 105 249 l6 104
75 24 c41 12 115 32 165 43 91 21 346 61 352 56 1 -2 -61 -55 -139 -117 -77
-63 -147 -124 -154 -135 -22 -31 -17 -90 9 -120 25 -30 84 -45 280 -71 125
-17 508 -24 557 -10 24 7 23 5 -7 -21 -46 -41 -176 -115 -263 -151 -200 -81
-412 -121 -701 -130 l-207 -7 -114 -110 c-127 -123 -239 -203 -379 -269 -94
-45 -277 -111 -285 -103 -2 2 16 47 40 100 44 95 97 239 111 305 8 40 -8 85
-39 106 -13 8 -72 21 -132 30 -242 36 -467 92 -645 162 -106 41 -311 144 -349
175 l-25 20 50 -6 c203 -27 322 -36 547 -42 l257 -6 30 31 c45 45 42 79 -19
178 -62 102 -157 334 -136 334 3 0 36 -19 73 -42z m-552 -1071 c24 -14 50 -40
65 -67 22 -40 25 -56 24 -140 -1 -109 -21 -176 -95 -307 -65 -114 -218 -265
-324 -320 -152 -78 -264 -79 -336 -3 -180 189 92 705 441 838 77 29 172 29
225 -1z"/>
</g>
</svg>
